0
SECTION
2
HEADER
9
$INSUNITS
70
4
0
ENDSEC
0
SECTION
2
TABLES
0
TABLE
2
LTYPE
0
LTYPE
72
65
70
64
2
CONTINUOUS
3
______
73
0
40
0
0
ENDTAB
0
TABLE
2
LAYER
0
ENDTAB
0
ENDSEC
0
SECTION
2
ENTITIES
0
LINE
8
0
10
62
20
-107
11
62
21
-44.4
0
LINE
8
0
10
64
20
-42.4
11
198
21
-42.4
0
LINE
8
0
10
200
20
-44.4
11
200
21
-77.4
0
LINE
8
0
10
198
20
-79.4
11
148
21
-79.4
0
LINE
8
0
10
146
20
-81.4
11
146
21
-107
0
LINE
8
0
10
144
20
-109
11
64
21
-109
0
ARC
8
0
10
64
20
-44.4
40
2
50
90
51
180
0
ARC
8
0
10
198
20
-44.4
40
2
50
0
51
90
0
ARC
8
0
10
198
20
-77.4
40
2
50
270
51
0
0
ARC
8
0
10
148
20
-81.4
40
2
50
90
51
180
0
ARC
8
0
10
144
20
-107
40
2
50
270
51
0
0
ARC
8
0
10
64
20
-107
40
2
50
180
51
270
0
LINE
8
0
10
93.25
20
-108.25
11
106.75
21
-108.25
0
LINE
8
0
10
108.75
20
-106.25
11
108.75
21
-93.75
0
LINE
8
0
10
106.75
20
-91.75
11
93.25
21
-91.75
0
LINE
8
0
10
91.25
20
-93.75
11
91.25
21
-106.25
0
LINE
8
0
10
93.25
20
-77.65
11
106.75
21
-77.65
0
LINE
8
0
10
108.75
20
-75.65
11
108.75
21
-63.15
0
LINE
8
0
10
106.75
20
-61.15
11
93.25
21
-61.15
0
LINE
8
0
10
91.25
20
-63.15
11
91.25
21
-75.65
0
LINE
8
0
10
93.25
20
-60.65
11
106.75
21
-60.65
0
LINE
8
0
10
108.75
20
-58.65
11
108.75
21
-46.15
0
LINE
8
0
10
106.75
20
-44.15
11
93.25
21
-44.15
0
LINE
8
0
10
91.25
20
-46.15
11
91.25
21
-58.65
0
LINE
8
0
10
111.25
20
-108.25
11
124.75
21
-108.25
0
LINE
8
0
10
126.75
20
-106.25
11
126.75
21
-93.75
0
LINE
8
0
10
124.75
20
-91.75
11
111.25
21
-91.75
0
LINE
8
0
10
109.25
20
-93.75
11
109.25
21
-106.25
0
LINE
8
0
10
111.25
20
-77.65
11
124.75
21
-77.65
0
LINE
8
0
10
126.75
20
-75.65
11
126.75
21
-63.15
0
LINE
8
0
10
124.75
20
-61.15
11
111.25
21
-61.15
0
LINE
8
0
10
109.25
20
-63.15
11
109.25
21
-75.65
0
LINE
8
0
10
111.25
20
-60.65
11
124.75
21
-60.65
0
LINE
8
0
10
126.75
20
-58.65
11
126.75
21
-46.15
0
LINE
8
0
10
124.75
20
-44.15
11
111.25
21
-44.15
0
LINE
8
0
10
109.25
20
-46.15
11
109.25
21
-58.65
0
LINE
8
0
10
129.25
20
-108.25
11
142.75
21
-108.25
0
LINE
8
0
10
144.75
20
-106.25
11
144.75
21
-93.75
0
LINE
8
0
10
142.75
20
-91.75
11
129.25
21
-91.75
0
LINE
8
0
10
127.25
20
-93.75
11
127.25
21
-106.25
0
LINE
8
0
10
129.25
20
-77.65
11
142.75
21
-77.65
0
LINE
8
0
10
144.75
20
-75.65
11
144.75
21
-63.15
0
LINE
8
0
10
142.75
20
-61.15
11
129.25
21
-61.15
0
LINE
8
0
10
127.25
20
-63.15
11
127.25
21
-75.65
0
LINE
8
0
10
129.25
20
-60.65
11
142.75
21
-60.65
0
LINE
8
0
10
144.75
20
-58.65
11
144.75
21
-46.15
0
LINE
8
0
10
142.75
20
-44.15
11
129.25
21
-44.15
0
LINE
8
0
10
127.25
20
-46.15
11
127.25
21
-58.65
0
LINE
8
0
10
147.25
20
-77.65
11
160.75
21
-77.65
0
LINE
8
0
10
162.75
20
-75.65
11
162.75
21
-63.15
0
LINE
8
0
10
160.75
20
-61.15
11
147.25
21
-61.15
0
LINE
8
0
10
145.25
20
-63.15
11
145.25
21
-75.65
0
LINE
8
0
10
147.25
20
-60.65
11
160.75
21
-60.65
0
LINE
8
0
10
162.75
20
-58.65
11
162.75
21
-46.15
0
LINE
8
0
10
160.75
20
-44.15
11
147.25
21
-44.15
0
LINE
8
0
10
145.25
20
-46.15
11
145.25
21
-58.65
0
LINE
8
0
10
165.25
20
-77.65
11
178.75
21
-77.65
0
LINE
8
0
10
180.75
20
-75.65
11
180.75
21
-63.15
0
LINE
8
0
10
178.75
20
-61.15
11
165.25
21
-61.15
0
LINE
8
0
10
163.25
20
-63.15
11
163.25
21
-75.65
0
LINE
8
0
10
165.25
20
-60.65
11
178.75
21
-60.65
0
LINE
8
0
10
180.75
20
-58.65
11
180.75
21
-46.15
0
LINE
8
0
10
178.75
20
-44.15
11
165.25
21
-44.15
0
LINE
8
0
10
163.25
20
-46.15
11
163.25
21
-58.65
0
LINE
8
0
10
183.25
20
-77.65
11
196.75
21
-77.65
0
LINE
8
0
10
198.75
20
-75.65
11
198.75
21
-63.15
0
LINE
8
0
10
196.75
20
-61.15
11
183.25
21
-61.15
0
LINE
8
0
10
181.25
20
-63.15
11
181.25
21
-75.65
0
LINE
8
0
10
183.25
20
-60.65
11
196.75
21
-60.65
0
LINE
8
0
10
198.75
20
-58.65
11
198.75
21
-46.15
0
LINE
8
0
10
196.75
20
-44.15
11
183.25
21
-44.15
0
LINE
8
0
10
181.25
20
-46.15
11
181.25
21
-58.65
0
ARC
8
0
10
106.75
20
-106.25
40
2
50
270
51
0
0
ARC
8
0
10
106.75
20
-93.75
40
2
50
0
51
90
0
ARC
8
0
10
93.25
20
-93.75
40
2
50
90
51
180
0
ARC
8
0
10
93.25
20
-106.25
40
2
50
180
51
270
0
ARC
8
0
10
106.75
20
-75.65
40
2
50
270
51
0
0
ARC
8
0
10
106.75
20
-63.15
40
2
50
0
51
90
0
ARC
8
0
10
93.25
20
-63.15
40
2
50
90
51
180
0
ARC
8
0
10
93.25
20
-75.65
40
2
50
180
51
270
0
ARC
8
0
10
106.75
20
-58.65
40
2
50
270
51
0
0
ARC
8
0
10
106.75
20
-46.15
40
2
50
0
51
90
0
ARC
8
0
10
93.25
20
-46.15
40
2
50
90
51
180
0
ARC
8
0
10
93.25
20
-58.65
40
2
50
180
51
270
0
ARC
8
0
10
124.75
20
-106.25
40
2
50
270
51
0
0
ARC
8
0
10
124.75
20
-93.75
40
2
50
0
51
90
0
ARC
8
0
10
111.25
20
-93.75
40
2
50
90
51
180
0
ARC
8
0
10
111.25
20
-106.25
40
2
50
180
51
270
0
ARC
8
0
10
124.75
20
-75.65
40
2
50
270
51
0
0
ARC
8
0
10
124.75
20
-63.15
40
2
50
0
51
90
0
ARC
8
0
10
111.25
20
-63.15
40
2
50
90
51
180
0
ARC
8
0
10
111.25
20
-75.65
40
2
50
180
51
270
0
ARC
8
0
10
124.75
20
-58.65
40
2
50
270
51
0
0
ARC
8
0
10
124.75
20
-46.15
40
2
50
0
51
90
0
ARC
8
0
10
111.25
20
-46.15
40
2
50
90
51
180
0
ARC
8
0
10
111.25
20
-58.65
40
2
50
180
51
270
0
ARC
8
0
10
142.75
20
-106.25
40
2
50
270
51
0
0
ARC
8
0
10
142.75
20
-93.75
40
2
50
0
51
90
0
ARC
8
0
10
129.25
20
-93.75
40
2
50
90
51
180
0
ARC
8
0
10
129.25
20
-106.25
40
2
50
180
51
270
0
ARC
8
0
10
142.75
20
-75.65
40
2
50
270
51
0
0
ARC
8
0
10
142.75
20
-63.15
40
2
50
0
51
90
0
ARC
8
0
10
129.25
20
-63.15
40
2
50
90
51
180
0
ARC
8
0
10
129.25
20
-75.65
40
2
50
180
51
270
0
ARC
8
0
10
142.75
20
-58.65
40
2
50
270
51
0
0
ARC
8
0
10
142.75
20
-46.15
40
2
50
0
51
90
0
ARC
8
0
10
129.25
20
-46.15
40
2
50
90
51
180
0
ARC
8
0
10
129.25
20
-58.65
40
2
50
180
51
270
0
ARC
8
0
10
160.75
20
-75.65
40
2
50
270
51
0
0
ARC
8
0
10
160.75
20
-63.15
40
2
50
0
51
90
0
ARC
8
0
10
147.25
20
-63.15
40
2
50
90
51
180
0
ARC
8
0
10
147.25
20
-75.65
40
2
50
180
51
270
0
ARC
8
0
10
160.75
20
-58.65
40
2
50
270
51
0
0
ARC
8
0
10
160.75
20
-46.15
40
2
50
0
51
90
0
ARC
8
0
10
147.25
20
-46.15
40
2
50
90
51
180
0
ARC
8
0
10
147.25
20
-58.65
40
2
50
180
51
270
0
ARC
8
0
10
178.75
20
-75.65
40
2
50
270
51
0
0
ARC
8
0
10
178.75
20
-63.15
40
2
50
0
51
90
0
ARC
8
0
10
165.25
20
-63.15
40
2
50
90
51
180
0
ARC
8
0
10
165.25
20
-75.65
40
2
50
180
51
270
0
ARC
8
0
10
178.75
20
-58.65
40
2
50
270
51
0
0
ARC
8
0
10
178.75
20
-46.15
40
2
50
0
51
90
0
ARC
8
0
10
165.25
20
-46.15
40
2
50
90
51
180
0
ARC
8
0
10
165.25
20
-58.65
40
2
50
180
51
270
0
ARC
8
0
10
196.75
20
-75.65
40
2
50
270
51
0
0
ARC
8
0
10
196.75
20
-63.15
40
2
50
0
51
90
0
ARC
8
0
10
183.25
20
-63.15
40
2
50
90
51
180
0
ARC
8
0
10
183.25
20
-75.65
40
2
50
180
51
270
0
ARC
8
0
10
196.75
20
-58.65
40
2
50
270
51
0
0
ARC
8
0
10
196.75
20
-46.15
40
2
50
0
51
90
0
ARC
8
0
10
183.25
20
-46.15
40
2
50
90
51
180
0
ARC
8
0
10
183.25
20
-58.65
40
2
50
180
51
270
0
ENDSEC
0
EOF